<?xml version="1.0" encoding="UTF-8"?>
<!DOCTYPE svg PUBLIC "-//W3C//DTD SVG 1.1//EN" "http://www.w3.org/Graphics/SVG/1.1/DTD/svg11.dtd">
<svg xmlns="http://www.w3.org/2000/svg" version="1.1" width="48px" height="48px" style="shape-rendering:geometricPrecision; text-rendering:geometricPrecision; image-rendering:optimizeQuality; fill-rule:evenodd; clip-rule:evenodd" xmlns:xlink="http://www.w3.org/1999/xlink">
<g><path style="opacity:1" fill="#dddce1" d="M 3.5,-0.5 C 4.83333,-0.5 6.16667,-0.5 7.5,-0.5C 7.65668,0.873441 7.49001,2.20677 7,3.5C 6.32924,2.74756 5.4959,2.41423 4.5,2.5C 3.89022,1.60895 3.55688,0.608953 3.5,-0.5 Z"/></g>
<g><path style="opacity:1" fill="#cbcacb" d="M 16.5,-0.5 C 19.1667,-0.5 21.8333,-0.5 24.5,-0.5C 24.5,0.166667 24.5,0.833333 24.5,1.5C 23.8333,1.5 23.5,1.83333 23.5,2.5C 20.4633,0.814084 19.13,1.81408 19.5,5.5C 18.8333,6.83333 18.1667,6.83333 17.5,5.5C 18.6857,4.2946 18.6857,2.96126 17.5,1.5C 17.1667,0.833333 16.8333,0.166667 16.5,-0.5 Z"/></g>
<g><path style="opacity:1" fill="#b8b3ac" d="M 12.5,-0.5 C 13.8333,-0.5 15.1667,-0.5 16.5,-0.5C 16.8333,0.166667 17.1667,0.833333 17.5,1.5C 16.1667,1.83333 14.8333,2.16667 13.5,2.5C 12.596,1.79105 12.2627,0.791047 12.5,-0.5 Z"/></g>
<g><path style="opacity:1" fill="#6e674e" d="M 24.5,-0.5 C 25.8333,-0.5 27.1667,-0.5 28.5,-0.5C 28.6747,1.6208 28.3414,3.6208 27.5,5.5C 27.1667,5.5 26.8333,5.5 26.5,5.5C 26.8432,3.51676 26.1765,2.18342 24.5,1.5C 24.5,0.833333 24.5,0.166667 24.5,-0.5 Z"/></g>
<g><path style="opacity:1" fill="#b0aca7" d="M 36.5,-0.5 C 37.1667,-0.5 37.8333,-0.5 38.5,-0.5C 38.5,0.166667 38.5,0.833333 38.5,1.5C 37.8333,1.83333 37.1667,2.16667 36.5,2.5C 36.5,1.5 36.5,0.5 36.5,-0.5 Z"/></g>
<g><path style="opacity:1" fill="#585240" d="M 30.5,-0.5 C 31.1667,-0.5 31.8333,-0.5 32.5,-0.5C 33.1224,1.12159 34.1224,2.45492 35.5,3.5C 35.5,3.83333 35.5,4.16667 35.5,4.5C 34.609,5.10978 33.609,5.44312 32.5,5.5C 29.2903,4.30473 28.6237,2.30473 30.5,-0.5 Z"/></g>
<g><path style="opacity:1" fill="#716840" d="M 32.5,-0.5 C 33.8333,-0.5 35.1667,-0.5 36.5,-0.5C 36.5,0.5 36.5,1.5 36.5,2.5C 36.5,3.16667 36.1667,3.5 35.5,3.5C 34.1224,2.45492 33.1224,1.12159 32.5,-0.5 Z"/></g>
<g><path style="opacity:1" fill="#443b1e" d="M 44.5,-0.5 C 45.5,-0.5 46.5,-0.5 47.5,-0.5C 47.5,0.833333 47.5,2.16667 47.5,3.5C 46.1667,3.5 44.8333,3.5 43.5,3.5C 43.8333,2.16667 44.1667,0.833333 44.5,-0.5 Z"/></g>
<g><path style="opacity:1" fill="#8d835e" d="M -0.5,-0.5 C 0.833333,-0.5 2.16667,-0.5 3.5,-0.5C 3.55688,0.608953 3.89022,1.60895 4.5,2.5C 3.17793,2.66997 2.01127,2.33663 1,1.5C 0.76791,2.73747 0.26791,3.73747 -0.5,4.5C -0.5,2.83333 -0.5,1.16667 -0.5,-0.5 Z"/></g>
<g><path style="opacity:1" fill="#796d3f" d="M 4.5,2.5 C 4.5,3.5 4.5,4.5 4.5,5.5C 3.20895,5.26269 2.20895,5.59603 1.5,6.5C 0.833333,6.5 0.166667,6.5 -0.5,6.5C -0.5,5.83333 -0.5,5.16667 -0.5,4.5C 0.26791,3.73747 0.76791,2.73747 1,1.5C 2.01127,2.33663 3.17793,2.66997 4.5,2.5 Z"/></g>
<g><path style="opacity:1" fill="#807757" d="M 17.5,1.5 C 18.6857,2.96126 18.6857,4.2946 17.5,5.5C 16.5,5.5 15.5,5.5 14.5,5.5C 13.8333,5.5 13.1667,5.5 12.5,5.5C 13.1098,4.60895 13.4431,3.60895 13.5,2.5C 14.8333,2.16667 16.1667,1.83333 17.5,1.5 Z"/></g>
<g><path style="opacity:1" fill="#675f4a" d="M 38.5,1.5 C 40.0276,2.30921 41.6943,2.97588 43.5,3.5C 44.8333,3.5 46.1667,3.5 47.5,3.5C 47.5,3.83333 47.5,4.16667 47.5,4.5C 43.5,4.5 39.5,4.5 35.5,4.5C 35.5,4.16667 35.5,3.83333 35.5,3.5C 36.1667,3.5 36.5,3.16667 36.5,2.5C 37.1667,2.16667 37.8333,1.83333 38.5,1.5 Z"/></g>
<g><path style="opacity:1" fill="#4a4229" d="M 38.5,-0.5 C 40.5,-0.5 42.5,-0.5 44.5,-0.5C 44.1667,0.833333 43.8333,2.16667 43.5,3.5C 41.6943,2.97588 40.0276,2.30921 38.5,1.5C 38.5,0.833333 38.5,0.166667 38.5,-0.5 Z"/></g>
<g><path style="opacity:1" fill="#796e44" d="M 9.5,-0.5 C 10.5,-0.5 11.5,-0.5 12.5,-0.5C 12.2627,0.791047 12.596,1.79105 13.5,2.5C 13.4431,3.60895 13.1098,4.60895 12.5,5.5C 12.1667,5.5 11.8333,5.5 11.5,5.5C 10.3702,3.68545 9.70356,1.68545 9.5,-0.5 Z"/></g>
<g><path style="opacity:1" fill="#555343" d="M 24.5,1.5 C 26.1765,2.18342 26.8432,3.51676 26.5,5.5C 26.1667,5.5 25.8333,5.5 25.5,5.5C 24.8333,5.5 24.1667,5.5 23.5,5.5C 23.5,4.5 23.5,3.5 23.5,2.5C 23.5,1.83333 23.8333,1.5 24.5,1.5 Z"/></g>
<g><path style="opacity:1" fill="#83795b" d="M 7.5,-0.5 C 7.83333,-0.5 8.16667,-0.5 8.5,-0.5C 8.81507,2.21076 8.14841,4.54409 6.5,6.5C 4.83333,6.5 3.16667,6.5 1.5,6.5C 2.20895,5.59603 3.20895,5.26269 4.5,5.5C 4.5,4.5 4.5,3.5 4.5,2.5C 5.4959,2.41423 6.32924,2.74756 7,3.5C 7.49001,2.20677 7.65668,0.873441 7.5,-0.5 Z"/></g>
<g><path style="opacity:1" fill="#7b7462" d="M 23.5,2.5 C 23.5,3.5 23.5,4.5 23.5,5.5C 22.1667,5.5 20.8333,5.5 19.5,5.5C 19.13,1.81408 20.4633,0.814084 23.5,2.5 Z"/></g>
<g><path style="opacity:1" fill="#958c83" d="M 35.5,4.5 C 39.5,4.5 43.5,4.5 47.5,4.5C 47.5,5.16667 47.5,5.83333 47.5,6.5C 47.1667,6.5 46.8333,6.5 46.5,6.5C 43.1667,6.5 39.8333,6.5 36.5,6.5C 35.5,6.5 34.5,6.5 33.5,6.5C 33.1667,6.5 32.8333,6.5 32.5,6.5C 32.5,6.16667 32.5,5.83333 32.5,5.5C 33.609,5.44312 34.609,5.10978 35.5,4.5 Z"/></g>
<g><path style="opacity:1" fill="#72674b" d="M 8.5,-0.5 C 8.83333,-0.5 9.16667,-0.5 9.5,-0.5C 9.70356,1.68545 10.3702,3.68545 11.5,5.5C 10.0813,6.45115 8.41467,6.78448 6.5,6.5C 8.14841,4.54409 8.81507,2.21076 8.5,-0.5 Z"/></g>
<g><path style="opacity:1" fill="#aca69f" d="M 28.5,-0.5 C 29.1667,-0.5 29.8333,-0.5 30.5,-0.5C 28.6237,2.30473 29.2903,4.30473 32.5,5.5C 32.5,5.83333 32.5,6.16667 32.5,6.5C 30.5853,6.78448 28.9187,6.45115 27.5,5.5C 28.3414,3.6208 28.6747,1.6208 28.5,-0.5 Z"/></g>
<g><path style="opacity:1" fill="#a4998c" d="M 11.5,5.5 C 11.8333,5.5 12.1667,5.5 12.5,5.5C 13.1667,5.5 13.8333,5.5 14.5,5.5C 15.1667,6.16667 15.8333,6.83333 16.5,7.5C 14.8333,7.5 13.1667,7.5 11.5,7.5C 7.95815,7.81277 4.62482,7.47944 1.5,6.5C 3.16667,6.5 4.83333,6.5 6.5,6.5C 8.41467,6.78448 10.0813,6.45115 11.5,5.5 Z"/></g>
<g><path style="opacity:1" fill="#918880" d="M 14.5,5.5 C 15.5,5.5 16.5,5.5 17.5,5.5C 18.1667,6.83333 18.8333,6.83333 19.5,5.5C 20.8333,5.5 22.1667,5.5 23.5,5.5C 24.1667,5.5 24.8333,5.5 25.5,5.5C 23.0392,6.53101 20.3725,7.19767 17.5,7.5C 17.1667,7.5 16.8333,7.5 16.5,7.5C 15.8333,6.83333 15.1667,6.16667 14.5,5.5 Z"/></g>
<g><path style="opacity:1" fill="#7e6c57" d="M 25.5,5.5 C 25.8333,5.5 26.1667,5.5 26.5,5.5C 26.8333,5.5 27.1667,5.5 27.5,5.5C 28.9187,6.45115 30.5853,6.78448 32.5,6.5C 32.8333,6.5 33.1667,6.5 33.5,6.5C 30.6104,7.24484 27.6104,7.9115 24.5,8.5C 22.1667,8.5 19.8333,8.5 17.5,8.5C 17.5,8.16667 17.5,7.83333 17.5,7.5C 20.3725,7.19767 23.0392,6.53101 25.5,5.5 Z"/></g>
<g><path style="opacity:1" fill="#9c856a" d="M -0.5,6.5 C 0.166667,6.5 0.833333,6.5 1.5,6.5C 4.62482,7.47944 7.95815,7.81277 11.5,7.5C 7.70159,8.48342 3.70159,8.81675 -0.5,8.5C -0.5,7.83333 -0.5,7.16667 -0.5,6.5 Z"/></g>
<g><path style="opacity:1" fill="#6f5b40" d="M 36.5,6.5 C 39.8333,6.5 43.1667,6.5 46.5,6.5C 46.1344,7.69459 45.301,8.36126 44,8.5C 41.9906,8.00511 39.8239,8.00511 37.5,8.5C 36.6618,8.15829 36.3284,7.49162 36.5,6.5 Z"/></g>
<g><path style="opacity:1" fill="#907a51" d="M 17.5,8.5 C 19.8333,8.5 22.1667,8.5 24.5,8.5C 23.5,9.16667 22.5,9.83333 21.5,10.5C 21.1667,10.5 20.8333,10.5 20.5,10.5C 19.5,10.5 18.5,10.5 17.5,10.5C 17.5,9.83333 17.5,9.16667 17.5,8.5 Z"/></g>
<g><path style="opacity:1" fill="#746145" d="M 33.5,6.5 C 34.5,6.5 35.5,6.5 36.5,6.5C 36.3284,7.49162 36.6618,8.15829 37.5,8.5C 37.5,8.83333 37.5,9.16667 37.5,9.5C 36.8333,9.5 36.5,9.83333 36.5,10.5C 35.8333,10.5 35.1667,10.5 34.5,10.5C 32.2496,7.9659 29.9163,7.9659 27.5,10.5C 25.9382,10.7329 24.6049,11.3995 23.5,12.5C 22.8333,11.8333 22.1667,11.1667 21.5,10.5C 22.5,9.83333 23.5,9.16667 24.5,8.5C 27.6104,7.9115 30.6104,7.24484 33.5,6.5 Z"/></g>
<g><path style="opacity:1" fill="#6f5938" d="M 46.5,6.5 C 46.8333,6.5 47.1667,6.5 47.5,6.5C 47.5,7.5 47.5,8.5 47.5,9.5C 44.9179,9.02539 42.9179,9.69206 41.5,11.5C 40.1667,10.8333 38.8333,10.1667 37.5,9.5C 37.5,9.16667 37.5,8.83333 37.5,8.5C 39.8239,8.00511 41.9906,8.00511 44,8.5C 45.301,8.36126 46.1344,7.69459 46.5,6.5 Z"/></g>
<g><path style="opacity:1" fill="#a1855c" d="M 11.5,7.5 C 13.1667,7.5 14.8333,7.5 16.5,7.5C 16.8333,7.5 17.1667,7.5 17.5,7.5C 17.5,7.83333 17.5,8.16667 17.5,8.5C 17.5,9.16667 17.5,9.83333 17.5,10.5C 14.1194,10.5405 10.7861,10.2071 7.5,9.5C 4.83333,9.5 2.16667,9.5 -0.5,9.5C -0.5,9.16667 -0.5,8.83333 -0.5,8.5C 3.70159,8.81675 7.70159,8.48342 11.5,7.5 Z"/></g>
<g><path style="opacity:1" fill="#392c2a" d="M 34.5,10.5 C 32.1183,11.5463 29.7849,11.5463 27.5,10.5C 29.9163,7.9659 32.2496,7.9659 34.5,10.5 Z"/></g>
<g><path style="opacity:1" fill="#7f643a" d="M 47.5,9.5 C 47.5,10.5 47.5,11.5 47.5,12.5C 45.2646,12.7947 43.2646,12.4614 41.5,11.5C 42.9179,9.69206 44.9179,9.02539 47.5,9.5 Z"/></g>
<g><path style="opacity:1" fill="#b3945d" d="M -0.5,9.5 C 2.16667,9.5 4.83333,9.5 7.5,9.5C 6.04839,10.3019 4.38172,10.8019 2.5,11C 3.79323,11.49 5.12656,11.6567 6.5,11.5C 5.79105,12.404 4.79105,12.7373 3.5,12.5C 2.0357,11.5946 0.702365,11.5946 -0.5,12.5C -0.5,11.5 -0.5,10.5 -0.5,9.5 Z"/></g>
<g><path style="opacity:1" fill="#ad8e57" d="M 7.5,9.5 C 10.7861,10.2071 14.1194,10.5405 17.5,10.5C 18.5,10.5 19.5,10.5 20.5,10.5C 16.03,11.4861 11.3633,11.8195 6.5,11.5C 5.12656,11.6567 3.79323,11.49 2.5,11C 4.38172,10.8019 6.04839,10.3019 7.5,9.5 Z"/></g>
<g><path style="opacity:1" fill="#241513" d="M 27.5,10.5 C 29.7849,11.5463 32.1183,11.5463 34.5,10.5C 35.1667,10.5 35.8333,10.5 36.5,10.5C 37.2362,12.2294 38.5695,13.2294 40.5,13.5C 40.1667,14.1667 39.8333,14.8333 39.5,15.5C 38.391,15.4431 37.391,15.1098 36.5,14.5C 36.1583,13.6618 35.4916,13.3284 34.5,13.5C 34.0831,12.8761 33.4164,12.5427 32.5,12.5C 29.7082,12.7606 27.3749,13.7606 25.5,15.5C 24.8333,15.8333 24.1667,16.1667 23.5,16.5C 23.5,15.5 23.5,14.5 23.5,13.5C 23.5,13.1667 23.5,12.8333 23.5,12.5C 24.6049,11.3995 25.9382,10.7329 27.5,10.5 Z"/></g>
<g><path style="opacity:1" fill="#9e8458" d="M 20.5,10.5 C 20.8333,10.5 21.1667,10.5 21.5,10.5C 22.1667,11.1667 22.8333,11.8333 23.5,12.5C 18.3054,12.1795 13.3054,12.5128 8.5,13.5C 8.5,13.8333 8.5,14.1667 8.5,14.5C 8.16667,14.5 7.83333,14.5 7.5,14.5C 6.16667,13.8333 4.83333,13.1667 3.5,12.5C 4.79105,12.7373 5.79105,12.404 6.5,11.5C 11.3633,11.8195 16.03,11.4861 20.5,10.5 Z"/></g>
<g><path style="opacity:1" fill="#8e7142" d="M 36.5,10.5 C 36.5,9.83333 36.8333,9.5 37.5,9.5C 38.8333,10.1667 40.1667,10.8333 41.5,11.5C 43.2646,12.4614 45.2646,12.7947 47.5,12.5C 47.5,13.1667 47.5,13.8333 47.5,14.5C 45.0504,14.702 42.717,14.3686 40.5,13.5C 38.5695,13.2294 37.2362,12.2294 36.5,10.5 Z"/></g>
<g><path style="opacity:1" fill="#a98a58" d="M 3.5,12.5 C 4.83333,13.1667 6.16667,13.8333 7.5,14.5C 6.16667,14.5 4.83333,14.5 3.5,14.5C 3.16667,14.5 2.83333,14.5 2.5,14.5C 1.5,14.5 0.5,14.5 -0.5,14.5C -0.5,13.8333 -0.5,13.1667 -0.5,12.5C 0.702365,11.5946 2.0357,11.5946 3.5,12.5 Z"/></g>
<g><path style="opacity:1" fill="#847647" d="M 8.5,14.5 C 8.5,14.1667 8.5,13.8333 8.5,13.5C 11.1873,13.3359 13.854,13.5026 16.5,14C 17.056,14.3826 17.3893,14.8826 17.5,15.5C 16.5,15.5 15.5,15.5 14.5,15.5C 13.0527,14.1148 12.0527,14.4482 11.5,16.5C 10.8333,16.5 10.1667,16.5 9.5,16.5C 9.67158,15.5084 9.33825,14.8417 8.5,14.5 Z"/></g>
<g><path style="opacity:1" fill="#85774c" d="M 8.5,13.5 C 13.3054,12.5128 18.3054,12.1795 23.5,12.5C 23.5,12.8333 23.5,13.1667 23.5,13.5C 22.596,14.209 22.2627,15.209 22.5,16.5C 21.1667,16.5 19.8333,16.5 18.5,16.5C 18.5,15.8333 18.1667,15.5 17.5,15.5C 17.3893,14.8826 17.056,14.3826 16.5,14C 13.854,13.5026 11.1873,13.3359 8.5,13.5 Z"/></g>
<g><path style="opacity:1" fill="#6b5d31" d="M 40.5,13.5 C 42.717,14.3686 45.0504,14.702 47.5,14.5C 47.5,15.1667 47.5,15.8333 47.5,16.5C 45.9582,17.3007 44.2915,17.634 42.5,17.5C 40.8212,17.7148 39.8212,17.0481 39.5,15.5C 39.8333,14.8333 40.1667,14.1667 40.5,13.5 Z"/></g>
<g><path style="opacity:1" fill="#b7925e" d="M -0.5,14.5 C 0.5,14.5 1.5,14.5 2.5,14.5C 1.65859,16.3792 1.32526,18.3792 1.5,20.5C 1.5,20.8333 1.5,21.1667 1.5,21.5C 0.833333,21.5 0.166667,21.5 -0.5,21.5C -0.5,19.1667 -0.5,16.8333 -0.5,14.5 Z"/></g>
<g><path style="opacity:1" fill="#a88e4b" d="M 3.5,14.5 C 4.83333,14.5 6.16667,14.5 7.5,14.5C 7.83333,14.5 8.16667,14.5 8.5,14.5C 7.90018,15.8999 6.90018,16.8999 5.5,17.5C 4.09368,17.0269 3.42702,16.0269 3.5,14.5 Z"/></g>
<g><path style="opacity:1" fill="#7f4932" d="M 34.5,13.5 C 33.209,13.2627 32.209,13.596 31.5,14.5C 28.715,13.9162 27.0483,14.9162 26.5,17.5C 25.6618,17.1583 25.3284,16.4916 25.5,15.5C 27.3749,13.7606 29.7082,12.7606 32.5,12.5C 33.4164,12.5427 34.0831,12.8761 34.5,13.5 Z"/></g>
<g><path style="opacity:1" fill="#c58260" d="M 31.5,14.5 C 30.9002,15.8999 29.9002,16.8999 28.5,17.5C 28.1667,17.5 27.8333,17.5 27.5,17.5C 27.1667,17.5 26.8333,17.5 26.5,17.5C 27.0483,14.9162 28.715,13.9162 31.5,14.5 Z"/></g>
<g><path style="opacity:1" fill="#df9c77" d="M 31.5,14.5 C 32.9778,14.238 34.3112,14.5713 35.5,15.5C 35.1445,16.5223 34.4778,17.189 33.5,17.5C 32.5,17.5 31.5,17.5 30.5,17.5C 30.5,18.5 30.5,19.5 30.5,20.5C 31.5,20.5 32.5,20.5 33.5,20.5C 32.4324,21.4345 31.099,21.7678 29.5,21.5C 29.5674,20.0413 29.2341,18.7079 28.5,17.5C 29.9002,16.8999 30.9002,15.8999 31.5,14.5 Z"/></g>
<g><path style="opacity:1" fill="#6c5e3c" d="M 14.5,15.5 C 14.1667,16.1667 13.8333,16.8333 13.5,17.5C 12.1667,18.1667 11.1667,19.1667 10.5,20.5C 10.1667,20.5 9.83333,20.5 9.5,20.5C 9.73286,18.9382 10.3995,17.6049 11.5,16.5C 12.0527,14.4482 13.0527,14.1148 14.5,15.5 Z"/></g>
<g><path style="opacity:1" fill="#705d3a" d="M 23.5,13.5 C 23.5,14.5 23.5,15.5 23.5,16.5C 23.2178,17.7777 22.5511,18.7777 21.5,19.5C 19.5,19.5 18.5,18.5 18.5,16.5C 19.8333,16.5 21.1667,16.5 22.5,16.5C 22.2627,15.209 22.596,14.209 23.5,13.5 Z"/></g>
<g><path style="opacity:1" fill="#c98762" d="M 31.5,14.5 C 32.209,13.596 33.209,13.2627 34.5,13.5C 35.4916,13.3284 36.1583,13.6618 36.5,14.5C 36.5,15.1667 36.5,15.8333 36.5,16.5C 36.5,17.5 36.5,18.5 36.5,19.5C 35.609,20.1098 34.609,20.4431 33.5,20.5C 32.1667,19.5 32.1667,18.5 33.5,17.5C 34.4778,17.189 35.1445,16.5223 35.5,15.5C 34.3112,14.5713 32.9778,14.238 31.5,14.5 Z"/></g>
<g><path style="opacity:1" fill="#b19255" d="M 2.5,14.5 C 2.83333,14.5 3.16667,14.5 3.5,14.5C 3.42702,16.0269 4.09368,17.0269 5.5,17.5C 5.16667,18.1667 4.83333,18.8333 4.5,19.5C 3.60895,20.1098 2.60895,20.4431 1.5,20.5C 1.32526,18.3792 1.65859,16.3792 2.5,14.5 Z"/></g>
<g><path style="opacity:1" fill="#a98750" d="M 8.5,14.5 C 9.33825,14.8417 9.67158,15.5084 9.5,16.5C 9.08247,17.2216 8.4158,17.7216 7.5,18C 7.83333,18.3333 8.16667,18.6667 8.5,19C 7.20677,19.49 5.87344,19.6567 4.5,19.5C 4.83333,18.8333 5.16667,18.1667 5.5,17.5C 6.90018,16.8999 7.90018,15.8999 8.5,14.5 Z"/></g>
<g><path style="opacity:1" fill="#9c794d" d="M 9.5,16.5 C 10.1667,16.5 10.8333,16.5 11.5,16.5C 10.3995,17.6049 9.73286,18.9382 9.5,20.5C 7.58533,20.7845 5.91866,20.4511 4.5,19.5C 5.87344,19.6567 7.20677,19.49 8.5,19C 8.16667,18.6667 7.83333,18.3333 7.5,18C 8.4158,17.7216 9.08247,17.2216 9.5,16.5 Z"/></g>
<g><path style="opacity:1" fill="#a7854d" d="M 14.5,15.5 C 15.5,15.5 16.5,15.5 17.5,15.5C 18.1667,15.5 18.5,15.8333 18.5,16.5C 17.0236,18.4318 15.3569,18.7652 13.5,17.5C 13.8333,16.8333 14.1667,16.1667 14.5,15.5 Z"/></g>
<g><path style="opacity:1" fill="#695033" d="M 36.5,14.5 C 37.391,15.1098 38.391,15.4431 39.5,15.5C 39.8212,17.0481 40.8212,17.7148 42.5,17.5C 41.5,18.1667 40.5,18.8333 39.5,19.5C 38.1001,18.9002 37.1001,17.9002 36.5,16.5C 36.5,15.8333 36.5,15.1667 36.5,14.5 Z"/></g>
<g><path style="opacity:1" fill="#97764a" d="M 18.5,16.5 C 18.5,18.5 19.5,19.5 21.5,19.5C 22.1667,19.5 22.5,19.8333 22.5,20.5C 21.1667,20.5 19.8333,20.5 18.5,20.5C 15.8333,20.5 13.1667,20.5 10.5,20.5C 11.1667,19.1667 12.1667,18.1667 13.5,17.5C 15.3569,18.7652 17.0236,18.4318 18.5,16.5 Z"/></g>
<g><path style="opacity:1" fill="#834f3a" d="M 27.5,17.5 C 27.8333,17.5 28.1667,17.5 28.5,17.5C 29.2341,18.7079 29.5674,20.0413 29.5,21.5C 29.1667,21.5 28.8333,21.5 28.5,21.5C 28.631,20.7611 28.4643,20.0944 28,19.5C 27.9504,21.744 27.1171,23.4107 25.5,24.5C 24.5136,21.7822 25.1803,19.4488 27.5,17.5 Z"/></g>
<g><path style="opacity:1" fill="#8d543b" d="M 33.5,17.5 C 32.1667,18.5 32.1667,19.5 33.5,20.5C 32.5,20.5 31.5,20.5 30.5,20.5C 30.5,19.5 30.5,18.5 30.5,17.5C 31.5,17.5 32.5,17.5 33.5,17.5 Z"/></g>
<g><path style="opacity:1" fill="#c78660" d="M 36.5,16.5 C 37.1001,17.9002 38.1001,18.9002 39.5,19.5C 39.5,20.5 39.5,21.5 39.5,22.5C 38.1667,23.1667 37.1667,24.1667 36.5,25.5C 36.1667,25.5 35.8333,25.5 35.5,25.5C 35.5,25.1667 35.5,24.8333 35.5,24.5C 36.3007,22.9582 36.634,21.2915 36.5,19.5C 36.5,18.5 36.5,17.5 36.5,16.5 Z"/></g>
<g><path style="opacity:1" fill="#443526" d="M 47.5,16.5 C 47.5,18.1667 47.5,19.8333 47.5,21.5C 44.6592,21.4403 41.9925,20.7736 39.5,19.5C 40.5,18.8333 41.5,18.1667 42.5,17.5C 44.2915,17.634 45.9582,17.3007 47.5,16.5 Z"/></g>
<g><path style="opacity:1" fill="#a88957" d="M 4.5,19.5 C 5.91866,20.4511 7.58533,20.7845 9.5,20.5C 9.5,20.8333 9.5,21.1667 9.5,21.5C 7.27225,21.9702 5.93892,22.9702 5.5,24.5C 3.5828,24.2462 2.24947,23.2462 1.5,21.5C 1.5,21.1667 1.5,20.8333 1.5,20.5C 2.60895,20.4431 3.60895,20.1098 4.5,19.5 Z"/></g>
<g><path style="opacity:1" fill="#aa8d4e" d="M 9.5,20.5 C 9.83333,20.5 10.1667,20.5 10.5,20.5C 13.1667,20.5 15.8333,20.5 18.5,20.5C 17.0451,22.1343 15.3784,23.4676 13.5,24.5C 11.3812,24.5323 10.0478,23.5323 9.5,21.5C 9.5,21.1667 9.5,20.8333 9.5,20.5 Z"/></g>
<g><path style="opacity:1" fill="#a4884e" d="M 18.5,20.5 C 19.8333,20.5 21.1667,20.5 22.5,20.5C 23.1098,21.391 23.4431,22.391 23.5,23.5C 19.3846,22.6276 18.0513,24.2943 19.5,28.5C 18.8333,28.5 18.5,28.8333 18.5,29.5C 18.1667,29.5 17.8333,29.5 17.5,29.5C 16.8902,28.609 16.5569,27.609 16.5,26.5C 17.7574,25.3774 17.4241,24.7107 15.5,24.5C 14.8333,24.5 14.1667,24.5 13.5,24.5C 15.3784,23.4676 17.0451,22.1343 18.5,20.5 Z"/></g>
<g><path style="opacity:1" fill="#65422f" d="M 25.5,15.5 C 25.3284,16.4916 25.6618,17.1583 26.5,17.5C 26.8333,17.5 27.1667,17.5 27.5,17.5C 25.1803,19.4488 24.5136,21.7822 25.5,24.5C 26.8062,25.4674 27.4729,26.8007 27.5,28.5C 27.1667,28.5 26.8333,28.5 26.5,28.5C 26.1667,28.5 25.8333,28.5 25.5,28.5C 25.0679,27.2905 24.4013,26.2905 23.5,25.5C 23.5,24.8333 23.5,24.1667 23.5,23.5C 23.4431,22.391 23.1098,21.391 22.5,20.5C 22.5,19.8333 22.1667,19.5 21.5,19.5C 22.5511,18.7777 23.2178,17.7777 23.5,16.5C 24.1667,16.1667 24.8333,15.8333 25.5,15.5 Z"/></g>
<g><path style="opacity:1" fill="#695937" d="M 39.5,19.5 C 41.9925,20.7736 44.6592,21.4403 47.5,21.5C 47.5,22.8333 47.5,24.1667 47.5,25.5C 45.0779,23.9601 42.4112,22.9601 39.5,22.5C 39.5,21.5 39.5,20.5 39.5,19.5 Z"/></g>
<g><path style="opacity:1" fill="#a48948" d="M 23.5,23.5 C 23.5,24.1667 23.5,24.8333 23.5,25.5C 21.2933,26.0008 19.9599,27.0008 19.5,28.5C 18.0513,24.2943 19.3846,22.6276 23.5,23.5 Z"/></g>
<g><path style="opacity:1" fill="#6b4031" d="M 28.5,21.5 C 28.5,24.1667 28.5,26.8333 28.5,29.5C 28.5,30.8333 29.1667,31.5 30.5,31.5C 29.8333,32.1667 29.1667,32.8333 28.5,33.5C 28.1667,33.5 27.8333,33.5 27.5,33.5C 27.5,31.8333 27.5,30.1667 27.5,28.5C 27.4729,26.8007 26.8062,25.4674 25.5,24.5C 27.1171,23.4107 27.9504,21.744 28,19.5C 28.4643,20.0944 28.631,20.7611 28.5,21.5 Z"/></g>
<g><path style="opacity:1" fill="#a98c53" d="M -0.5,21.5 C 0.166667,21.5 0.833333,21.5 1.5,21.5C 2.24947,23.2462 3.5828,24.2462 5.5,24.5C 5.93892,22.9702 7.27225,21.9702 9.5,21.5C 10.0478,23.5323 11.3812,24.5323 13.5,24.5C 14.1667,24.5 14.8333,24.5 15.5,24.5C 13.4855,25.9238 11.1522,26.5905 8.5,26.5C 8.5,27.5 8.5,28.5 8.5,29.5C 7.22235,29.7822 6.22235,30.4489 5.5,31.5C 5.5,30.5 5.5,29.5 5.5,28.5C 4.5,28.5 3.5,28.5 2.5,28.5C 1.79105,27.596 0.791047,27.2627 -0.5,27.5C -0.5,25.5 -0.5,23.5 -0.5,21.5 Z"/></g>
<g><path style="opacity:1" fill="#b97457" d="M 28.5,21.5 C 28.8333,21.5 29.1667,21.5 29.5,21.5C 29.5,22.1667 29.5,22.8333 29.5,23.5C 29.8807,24.9311 30.8807,25.7645 32.5,26C 31.552,26.4828 30.552,26.6495 29.5,26.5C 29.5,27.5 29.5,28.5 29.5,29.5C 29.1667,29.5 28.8333,29.5 28.5,29.5C 28.5,26.8333 28.5,24.1667 28.5,21.5 Z"/></g>
<g><path style="opacity:1" fill="#ecae85" d="M 36.5,19.5 C 36.634,21.2915 36.3007,22.9582 35.5,24.5C 33.7,25.6052 32.5334,24.9386 32,22.5C 31.3292,23.2524 30.4959,23.5858 29.5,23.5C 29.5,22.8333 29.5,22.1667 29.5,21.5C 31.099,21.7678 32.4324,21.4345 33.5,20.5C 34.609,20.4431 35.609,20.1098 36.5,19.5 Z"/></g>
<g><path style="opacity:1" fill="#a2864d" d="M 23.5,25.5 C 24.4013,26.2905 25.0679,27.2905 25.5,28.5C 24.391,28.5569 23.391,28.8902 22.5,29.5C 21.1667,29.5 19.8333,29.5 18.5,29.5C 18.5,28.8333 18.8333,28.5 19.5,28.5C 19.9599,27.0008 21.2933,26.0008 23.5,25.5 Z"/></g>
<g><path style="opacity:1" fill="#866e3d" d="M 39.5,22.5 C 42.4112,22.9601 45.0779,23.9601 47.5,25.5C 47.5,25.8333 47.5,26.1667 47.5,26.5C 43.8212,26.2756 40.1545,25.9422 36.5,25.5C 37.1667,24.1667 38.1667,23.1667 39.5,22.5 Z"/></g>
<g><path style="opacity:1" fill="#db9872" d="M 35.5,24.5 C 35.5,24.8333 35.5,25.1667 35.5,25.5C 34.3373,27.9822 32.3373,29.3155 29.5,29.5C 29.5,28.5 29.5,27.5 29.5,26.5C 30.552,26.6495 31.552,26.4828 32.5,26C 30.8807,25.7645 29.8807,24.9311 29.5,23.5C 30.4959,23.5858 31.3292,23.2524 32,22.5C 32.5334,24.9386 33.7,25.6052 35.5,24.5 Z"/></g>
<g><path style="opacity:1" fill="#725c30" d="M 36.5,25.5 C 40.1545,25.9422 43.8212,26.2756 47.5,26.5C 47.5,27.1667 47.5,27.8333 47.5,28.5C 44.8333,28.5 42.1667,28.5 39.5,28.5C 38.8333,28.5 38.5,28.1667 38.5,27.5C 37.8333,26.8333 37.1667,26.1667 36.5,25.5 Z"/></g>
<g><path style="opacity:1" fill="#a58752" d="M 15.5,24.5 C 17.4241,24.7107 17.7574,25.3774 16.5,26.5C 15.3951,27.6005 14.0618,28.2671 12.5,28.5C 11.2905,28.9321 10.2905,29.5987 9.5,30.5C 8.83333,30.5 8.5,30.1667 8.5,29.5C 8.5,28.5 8.5,27.5 8.5,26.5C 11.1522,26.5905 13.4855,25.9238 15.5,24.5 Z"/></g>
<g><path style="opacity:1" fill="#9e864b" d="M 2.5,28.5 C 3.5,28.5 4.5,28.5 5.5,28.5C 5.5,29.5 5.5,30.5 5.5,31.5C 4.89022,32.391 4.55688,33.391 4.5,34.5C 3.83333,34.5 3.5,34.1667 3.5,33.5C 3.63404,31.7085 3.30071,30.0418 2.5,28.5 Z"/></g>
<g><path style="opacity:1" fill="#9d844d" d="M 16.5,26.5 C 16.5569,27.609 16.8902,28.609 17.5,29.5C 17.5,29.8333 17.5,30.1667 17.5,30.5C 15.2188,30.9227 13.5521,30.256 12.5,28.5C 14.0618,28.2671 15.3951,27.6005 16.5,26.5 Z"/></g>
<g><path style="opacity:1" fill="#dee5ef" d="M 38.5,27.5 C 38.5,28.1667 38.8333,28.5 39.5,28.5C 39.5,29.1667 39.8333,29.5 40.5,29.5C 40.5,29.8333 40.5,30.1667 40.5,30.5C 37.7872,29.5117 35.4539,30.1783 33.5,32.5C 32.5084,32.6716 31.8417,32.3382 31.5,31.5C 33.3718,29.3963 35.7052,28.063 38.5,27.5 Z"/></g>
<g><path style="opacity:1" fill="#5c4e31" d="M 39.5,28.5 C 42.1667,28.5 44.8333,28.5 47.5,28.5C 47.5,30.1667 47.5,31.8333 47.5,33.5C 45.3295,31.9138 42.9962,30.5804 40.5,29.5C 39.8333,29.5 39.5,29.1667 39.5,28.5 Z"/></g>
<g><path style="opacity:1" fill="#796740" d="M -0.5,27.5 C 0.791047,27.2627 1.79105,27.596 2.5,28.5C 3.30071,30.0418 3.63404,31.7085 3.5,33.5C 1.45079,33.7058 1.11746,34.5391 2.5,36C 1.75618,37.0386 0.75618,37.5386 -0.5,37.5C -0.5,34.1667 -0.5,30.8333 -0.5,27.5 Z"/></g>
<g><path style="opacity:1" fill="#987e4a" d="M 12.5,28.5 C 13.5521,30.256 15.2188,30.9227 17.5,30.5C 17.5,31.8333 17.5,33.1667 17.5,34.5C 16.8333,34.5 16.5,34.8333 16.5,35.5C 14.9519,35.1788 14.2852,34.1788 14.5,32.5C 14.1007,31.4789 12.7674,31.1455 10.5,31.5C 10.5,30.8333 10.1667,30.5 9.5,30.5C 10.2905,29.5987 11.2905,28.9321 12.5,28.5 Z"/></g>
<g><path style="opacity:1" fill="#9d6952" d="M 35.5,25.5 C 35.8333,25.5 36.1667,25.5 36.5,25.5C 37.1667,26.1667 37.8333,26.8333 38.5,27.5C 35.7052,28.063 33.3718,29.3963 31.5,31.5C 31.1667,31.5 30.8333,31.5 30.5,31.5C 29.1667,31.5 28.5,30.8333 28.5,29.5C 28.8333,29.5 29.1667,29.5 29.5,29.5C 32.3373,29.3155 34.3373,27.9822 35.5,25.5 Z"/></g>
<g><path style="opacity:1" fill="#8f764b" d="M 17.5,29.5 C 17.8333,29.5 18.1667,29.5 18.5,29.5C 19.8333,29.5 21.1667,29.5 22.5,29.5C 21.6314,31.717 21.298,34.0504 21.5,36.5C 21.1667,36.5 20.8333,36.5 20.5,36.5C 19.7777,35.4489 18.7777,34.7822 17.5,34.5C 17.5,33.1667 17.5,31.8333 17.5,30.5C 17.5,30.1667 17.5,29.8333 17.5,29.5 Z"/></g>
<g><path style="opacity:1" fill="#3a507a" d="M 25.5,28.5 C 25.8333,28.5 26.1667,28.5 26.5,28.5C 26.5674,29.9587 26.2341,31.2921 25.5,32.5C 25.1667,32.5 24.8333,32.5 24.5,32.5C 24.4326,31.0413 24.7659,29.7079 25.5,28.5 Z"/></g>
<g><path style="opacity:1" fill="#b4cbe6" d="M 40.5,30.5 C 40.5,30.8333 40.5,31.1667 40.5,31.5C 39.209,31.2627 38.209,31.596 37.5,32.5C 36.1667,32.5 34.8333,32.5 33.5,32.5C 35.4539,30.1783 37.7872,29.5117 40.5,30.5 Z"/></g>
<g><path style="opacity:1" fill="#bac9d9" d="M 40.5,29.5 C 42.9962,30.5804 45.3295,31.9138 47.5,33.5C 47.5,34.5 47.5,35.5 47.5,36.5C 46.2209,35.032 44.5542,34.3653 42.5,34.5C 42.7148,32.8212 42.0481,31.8212 40.5,31.5C 40.5,31.1667 40.5,30.8333 40.5,30.5C 40.5,30.1667 40.5,29.8333 40.5,29.5 Z"/></g>
<g><path style="opacity:1" fill="#997b4f" d="M 10.5,31.5 C 12.7674,31.1455 14.1007,31.4789 14.5,32.5C 12.847,32.6596 11.5137,33.3263 10.5,34.5C 9.83333,34.5 9.16667,34.5 8.5,34.5C 8.42702,32.9731 9.09368,31.9731 10.5,31.5 Z"/></g>
<g><path style="opacity:1" fill="#a58654" d="M 8.5,29.5 C 8.5,30.1667 8.83333,30.5 9.5,30.5C 10.1667,30.5 10.5,30.8333 10.5,31.5C 9.09368,31.9731 8.42702,32.9731 8.5,34.5C 7.5,34.5 6.5,34.5 5.5,34.5C 5.16667,34.5 4.83333,34.5 4.5,34.5C 4.55688,33.391 4.89022,32.391 5.5,31.5C 6.22235,30.4489 7.22235,29.7822 8.5,29.5 Z"/></g>
<g><path style="opacity:1" fill="#6986b0" d="M 25.5,28.5 C 24.7659,29.7079 24.4326,31.0413 24.5,32.5C 23.7659,33.7079 23.4326,35.0413 23.5,36.5C 22.5655,37.5676 22.2322,38.901 22.5,40.5C 21.5655,39.4324 21.2322,38.099 21.5,36.5C 21.298,34.0504 21.6314,31.717 22.5,29.5C 23.391,28.8902 24.391,28.5569 25.5,28.5 Z"/></g>
<g><path style="opacity:1" fill="#0b0408" d="M 26.5,28.5 C 26.8333,28.5 27.1667,28.5 27.5,28.5C 27.5,30.1667 27.5,31.8333 27.5,33.5C 26.7325,37.139 26.0658,36.8057 25.5,32.5C 26.2341,31.2921 26.5674,29.9587 26.5,28.5 Z"/></g>
<g><path style="opacity:1" fill="#81a1c9" d="M 30.5,31.5 C 30.8333,31.5 31.1667,31.5 31.5,31.5C 31.8417,32.3382 32.5084,32.6716 33.5,32.5C 34.8333,32.5 36.1667,32.5 37.5,32.5C 37.5,32.8333 37.5,33.1667 37.5,33.5C 35.1236,34.2061 33.7903,35.8727 33.5,38.5C 33.1667,38.5 32.8333,38.5 32.5,38.5C 33.4339,36.7615 33.4339,35.0948 32.5,33.5C 31.2638,34.2458 29.9305,34.5792 28.5,34.5C 28.5,34.1667 28.5,33.8333 28.5,33.5C 29.1667,32.8333 29.8333,32.1667 30.5,31.5 Z"/></g>
<g><path style="opacity:1" fill="#8f7646" d="M 14.5,32.5 C 14.2852,34.1788 14.9519,35.1788 16.5,35.5C 16.5,35.8333 16.5,36.1667 16.5,36.5C 15.209,36.2627 14.209,36.596 13.5,37.5C 11.3523,37.6106 11.019,36.944 12.5,35.5C 12.0431,34.7025 11.3764,34.3691 10.5,34.5C 11.5137,33.3263 12.847,32.6596 14.5,32.5 Z"/></g>
<g><path style="opacity:1" fill="#11101a" d="M 24.5,32.5 C 24.8333,32.5 25.1667,32.5 25.5,32.5C 26.0658,36.8057 26.7325,37.139 27.5,33.5C 27.8333,33.5 28.1667,33.5 28.5,33.5C 28.5,33.8333 28.5,34.1667 28.5,34.5C 28.5,34.8333 28.5,35.1667 28.5,35.5C 28.7148,37.1788 28.0481,38.1788 26.5,38.5C 25.5,37.8333 24.5,37.1667 23.5,36.5C 23.4326,35.0413 23.7659,33.7079 24.5,32.5 Z"/></g>
<g><path style="opacity:1" fill="#a2bcdb" d="M 40.5,31.5 C 42.0481,31.8212 42.7148,32.8212 42.5,34.5C 44.5542,34.3653 46.2209,35.032 47.5,36.5C 47.5,36.8333 47.5,37.1667 47.5,37.5C 46.209,37.7373 45.209,37.404 44.5,36.5C 43.1917,35.7677 41.8584,34.9344 40.5,34C 41.5981,33.2303 41.5981,32.397 40.5,31.5 Z"/></g>
<g><path style="opacity:1" fill="#7a9ac4" d="M 40.5,31.5 C 41.5981,32.397 41.5981,33.2303 40.5,34C 41.8584,34.9344 43.1917,35.7677 44.5,36.5C 43.1667,36.5 41.8333,36.5 40.5,36.5C 39.7784,36.0825 39.2784,35.4158 39,34.5C 37.8932,35.7119 37.3932,35.3786 37.5,33.5C 37.5,33.1667 37.5,32.8333 37.5,32.5C 38.209,31.596 39.209,31.2627 40.5,31.5 Z"/></g>
<g><path style="opacity:1" fill="#7f6a43" d="M 17.5,34.5 C 18.7777,34.7822 19.7777,35.4489 20.5,36.5C 20.5,40.1667 20.5,43.8333 20.5,47.5C 20.1667,47.5 19.8333,47.5 19.5,47.5C 19.5,46.1667 19.5,44.8333 19.5,43.5C 19.5,42.5 19.5,41.5 19.5,40.5C 18.5,40.5 17.5,40.5 16.5,40.5C 15.7109,40.2172 15.0442,39.7172 14.5,39C 15.756,38.5831 16.4226,37.7498 16.5,36.5C 16.5,36.1667 16.5,35.8333 16.5,35.5C 16.5,34.8333 16.8333,34.5 17.5,34.5 Z"/></g>
<g><path style="opacity:1" fill="#897245" d="M 3.5,33.5 C 3.5,34.1667 3.83333,34.5 4.5,34.5C 4.83333,34.5 5.16667,34.5 5.5,34.5C 5.5,35.5 5.5,36.5 5.5,37.5C 6.5,37.5 7.5,37.5 8.5,37.5C 7.89022,38.391 7.55688,39.391 7.5,40.5C 5.26957,41.409 3.26957,41.7423 1.5,41.5C 0.833333,41.1667 0.166667,40.8333 -0.5,40.5C -0.5,39.5 -0.5,38.5 -0.5,37.5C 0.75618,37.5386 1.75618,37.0386 2.5,36C 1.11746,34.5391 1.45079,33.7058 3.5,33.5 Z"/></g>
<g><path style="opacity:1" fill="#8d7249" d="M 5.5,34.5 C 6.5,34.5 7.5,34.5 8.5,34.5C 9.16667,34.5 9.83333,34.5 10.5,34.5C 9.83333,35.5 9.16667,36.5 8.5,37.5C 7.5,37.5 6.5,37.5 5.5,37.5C 5.5,36.5 5.5,35.5 5.5,34.5 Z"/></g>
<g><path style="opacity:1" fill="#5f82b0" d="M 32.5,38.5 C 31.8333,38.5 31.5,38.8333 31.5,39.5C 30.9779,37.7809 29.9779,36.4475 28.5,35.5C 28.5,35.1667 28.5,34.8333 28.5,34.5C 29.9305,34.5792 31.2638,34.2458 32.5,33.5C 33.4339,35.0948 33.4339,36.7615 32.5,38.5 Z"/></g>
<g><path style="opacity:1" fill="#6e8eba" d="M 40.5,36.5 C 41.8333,36.5 43.1667,36.5 44.5,36.5C 45.209,37.404 46.209,37.7373 47.5,37.5C 47.5,38.1667 47.5,38.8333 47.5,39.5C 45.1944,39.0074 42.861,38.6741 40.5,38.5C 40.5,37.8333 40.5,37.1667 40.5,36.5 Z"/></g>
<g><path style="opacity:1" fill="#8b7441" d="M 10.5,34.5 C 11.3764,34.3691 12.0431,34.7025 12.5,35.5C 11.019,36.944 11.3523,37.6106 13.5,37.5C 13.7148,39.1788 13.0481,40.1788 11.5,40.5C 10.1667,41.8333 8.83333,41.8333 7.5,40.5C 7.55688,39.391 7.89022,38.391 8.5,37.5C 9.16667,36.5 9.83333,35.5 10.5,34.5 Z"/></g>
<g><path style="opacity:1" fill="#5f81ac" d="M 37.5,33.5 C 37.3932,35.3786 37.8932,35.7119 39,34.5C 39.2784,35.4158 39.7784,36.0825 40.5,36.5C 40.5,37.1667 40.5,37.8333 40.5,38.5C 39.609,39.1098 38.609,39.4431 37.5,39.5C 37.1667,38.1667 36.8333,38.1667 36.5,39.5C 35.1429,40.5903 34.1429,41.9236 33.5,43.5C 32.1667,41.8333 32.1667,40.1667 33.5,38.5C 33.7903,35.8727 35.1236,34.2061 37.5,33.5 Z"/></g>
<g><path style="opacity:1" fill="#52709b" d="M 40.5,38.5 C 41.5,39.1667 42.5,39.8333 43.5,40.5C 42.8333,40.5 42.5,40.8333 42.5,41.5C 41.1667,42.1667 39.8333,42.8333 38.5,43.5C 38.1667,42.1667 37.8333,40.8333 37.5,39.5C 38.609,39.4431 39.609,39.1098 40.5,38.5 Z"/></g>
<g><path style="opacity:1" fill="#866d41" d="M 16.5,36.5 C 16.4226,37.7498 15.756,38.5831 14.5,39C 15.0442,39.7172 15.7109,40.2172 16.5,40.5C 15.1667,41.1667 13.8333,41.8333 12.5,42.5C 12.1667,42.5 11.8333,42.5 11.5,42.5C 11.5,41.8333 11.5,41.1667 11.5,40.5C 13.0481,40.1788 13.7148,39.1788 13.5,37.5C 14.209,36.596 15.209,36.2627 16.5,36.5 Z"/></g>
<g><path style="opacity:1" fill="#3a3b48" d="M 23.5,36.5 C 24.5,37.1667 25.5,37.8333 26.5,38.5C 26.8333,39.1667 27.1667,39.8333 27.5,40.5C 27.1205,41.1331 26.7871,41.7997 26.5,42.5C 25.1401,41.8201 23.8068,41.1534 22.5,40.5C 22.2322,38.901 22.5655,37.5676 23.5,36.5 Z"/></g>
<g><path style="opacity:1" fill="#52688d" d="M 28.5,35.5 C 29.9779,36.4475 30.9779,37.7809 31.5,39.5C 31.0733,42.0098 30.4067,44.3432 29.5,46.5C 29.5,46.1667 29.5,45.8333 29.5,45.5C 29.8799,43.302 29.2132,41.6354 27.5,40.5C 27.1667,39.8333 26.8333,39.1667 26.5,38.5C 28.0481,38.1788 28.7148,37.1788 28.5,35.5 Z"/></g>
<g><path style="opacity:1" fill="#617ba4" d="M 40.5,38.5 C 42.861,38.6741 45.1944,39.0074 47.5,39.5C 47.5,40.5 47.5,41.5 47.5,42.5C 46.1667,41.8333 44.8333,41.1667 43.5,40.5C 42.5,39.8333 41.5,39.1667 40.5,38.5 Z"/></g>
<g><path style="opacity:1" fill="#846b3d" d="M 7.5,40.5 C 8.83333,41.8333 10.1667,41.8333 11.5,40.5C 11.5,41.1667 11.5,41.8333 11.5,42.5C 11.1667,42.5 10.8333,42.5 10.5,42.5C 7.5,42.5 4.5,42.5 1.5,42.5C 1.5,42.1667 1.5,41.8333 1.5,41.5C 3.26957,41.7423 5.26957,41.409 7.5,40.5 Z"/></g>
<g><path style="opacity:1" fill="#150f17" d="M 22.5,40.5 C 23.8068,41.1534 25.1401,41.8201 26.5,42.5C 26.7871,41.7997 27.1205,41.1331 27.5,40.5C 29.2132,41.6354 29.8799,43.302 29.5,45.5C 27.0554,44.6876 24.7221,43.6876 22.5,42.5C 22.5,41.8333 22.5,41.1667 22.5,40.5 Z"/></g>
<g><path style="opacity:1" fill="#7b6636" d="M 1.5,42.5 C 4.5,42.5 7.5,42.5 10.5,42.5C 9.09982,43.1001 8.09982,44.1001 7.5,45.5C 4.54746,46.7706 2.54746,45.7706 1.5,42.5 Z"/></g>
<g><path style="opacity:1" fill="#7b6439" d="M 16.5,40.5 C 17.5,40.5 18.5,40.5 19.5,40.5C 19.5,41.5 19.5,42.5 19.5,43.5C 18.1196,44.7065 16.9529,44.3731 16,42.5C 15.5357,43.0944 15.369,43.7611 15.5,44.5C 14.2905,44.0679 13.2905,43.4013 12.5,42.5C 13.8333,41.8333 15.1667,41.1667 16.5,40.5 Z"/></g>
<g><path style="opacity:1" fill="#57759a" d="M 37.5,39.5 C 37.8333,40.8333 38.1667,42.1667 38.5,43.5C 38.5271,45.1993 39.1938,46.5326 40.5,47.5C 39.1667,47.5 37.8333,47.5 36.5,47.5C 36.5,44.8333 36.5,42.1667 36.5,39.5C 36.8333,38.1667 37.1667,38.1667 37.5,39.5 Z"/></g>
<g><path style="opacity:1" fill="#766137" d="M 10.5,42.5 C 10.8333,42.5 11.1667,42.5 11.5,42.5C 11.8333,42.5 12.1667,42.5 12.5,42.5C 13.2905,43.4013 14.2905,44.0679 15.5,44.5C 14.8902,45.391 14.5569,46.391 14.5,47.5C 14.1667,47.5 13.8333,47.5 13.5,47.5C 12.4563,44.7998 10.7896,44.1332 8.5,45.5C 8.16667,45.5 7.83333,45.5 7.5,45.5C 8.09982,44.1001 9.09982,43.1001 10.5,42.5 Z"/></g>
<g><path style="opacity:1" fill="#6f8eb2" d="M 32.5,38.5 C 32.8333,38.5 33.1667,38.5 33.5,38.5C 32.1667,40.1667 32.1667,41.8333 33.5,43.5C 34.2341,44.7079 34.5674,46.0413 34.5,47.5C 32.5,47.5 30.5,47.5 28.5,47.5C 28.5,46.8333 28.8333,46.5 29.5,46.5C 30.4067,44.3432 31.0733,42.0098 31.5,39.5C 31.5,38.8333 31.8333,38.5 32.5,38.5 Z"/></g>
<g><path style="opacity:1" fill="#485f82" d="M 42.5,41.5 C 42.5,42.1667 42.5,42.8333 42.5,43.5C 42.4326,44.9587 42.7659,46.2921 43.5,47.5C 42.5,47.5 41.5,47.5 40.5,47.5C 39.1938,46.5326 38.5271,45.1993 38.5,43.5C 39.8333,42.8333 41.1667,42.1667 42.5,41.5 Z"/></g>
<g><path style="opacity:1" fill="#59542f" d="M -0.5,40.5 C 0.166667,40.8333 0.833333,41.1667 1.5,41.5C 1.5,41.8333 1.5,42.1667 1.5,42.5C 2.54746,45.7706 4.54746,46.7706 7.5,45.5C 7.83333,45.5 8.16667,45.5 8.5,45.5C 8.16667,46.1667 7.83333,46.8333 7.5,47.5C 4.83333,47.5 2.16667,47.5 -0.5,47.5C -0.5,45.1667 -0.5,42.8333 -0.5,40.5 Z"/></g>
<g><path style="opacity:1" fill="#674147" d="M 22.5,42.5 C 24.7221,43.6876 27.0554,44.6876 29.5,45.5C 29.5,45.8333 29.5,46.1667 29.5,46.5C 28.8333,46.5 28.5,46.8333 28.5,47.5C 26.5,47.5 24.5,47.5 22.5,47.5C 22.5,45.8333 22.5,44.1667 22.5,42.5 Z"/></g>
<g><path style="opacity:1" fill="#5d7fa6" d="M 36.5,39.5 C 36.5,42.1667 36.5,44.8333 36.5,47.5C 35.8333,47.5 35.1667,47.5 34.5,47.5C 34.5674,46.0413 34.2341,44.7079 33.5,43.5C 34.1429,41.9236 35.1429,40.5903 36.5,39.5 Z"/></g>
<g><path style="opacity:1" fill="#4e5e78" d="M 42.5,43.5 C 43.7791,44.968 45.4458,45.6347 47.5,45.5C 47.5,46.1667 47.5,46.8333 47.5,47.5C 46.1667,47.5 44.8333,47.5 43.5,47.5C 42.7659,46.2921 42.4326,44.9587 42.5,43.5 Z"/></g>
<g><path style="opacity:1" fill="#566888" d="M 43.5,40.5 C 44.8333,41.1667 46.1667,41.8333 47.5,42.5C 47.5,43.5 47.5,44.5 47.5,45.5C 45.4458,45.6347 43.7791,44.968 42.5,43.5C 42.5,42.8333 42.5,42.1667 42.5,41.5C 42.5,40.8333 42.8333,40.5 43.5,40.5 Z"/></g>
<g><path style="opacity:1" fill="#756334" d="M 19.5,43.5 C 19.5,44.8333 19.5,46.1667 19.5,47.5C 17.8333,47.5 16.1667,47.5 14.5,47.5C 14.5569,46.391 14.8902,45.391 15.5,44.5C 15.369,43.7611 15.5357,43.0944 16,42.5C 16.9529,44.3731 18.1196,44.7065 19.5,43.5 Z"/></g>
<g><path style="opacity:1" fill="#687b97" d="M 20.5,36.5 C 20.8333,36.5 21.1667,36.5 21.5,36.5C 21.2322,38.099 21.5655,39.4324 22.5,40.5C 22.5,41.1667 22.5,41.8333 22.5,42.5C 22.5,44.1667 22.5,45.8333 22.5,47.5C 21.8333,47.5 21.1667,47.5 20.5,47.5C 20.5,43.8333 20.5,40.1667 20.5,36.5 Z"/></g>
<g><path style="opacity:1" fill="#806945" d="M 13.5,47.5 C 11.5,47.5 9.5,47.5 7.5,47.5C 7.83333,46.8333 8.16667,46.1667 8.5,45.5C 10.7896,44.1332 12.4563,44.7998 13.5,47.5 Z"/></g>
</svg>
